<svg xmlns="http://www.w3.org/2000/svg" aria-hidden="true" data-prefix="fas" data-icon="hammer" role="img" width="512" height="512"><rect id="backgroundrect" width="100%" height="100%" x="0" y="0" fill="none" stroke="none"/><g class="currentLayer" style=""><title>Layer 1</title><path fill="#fff" d="M506.322910127652,193.94 l-20.055931002497672,-22.63 c-5.539088323712349,-6.25 -14.516842678785324,-6.25 -20.055931002497672,0 l-10.023534230589867,11.31 l-25.6127444088459,-28.9 c4.989610762000084,-21.31 0.31905148744583145,-44.9 -14.490255054831506,-61.61 l-40.102999463677406,-45.25 c-55.373158154487605,-62.48 -145.1595642465353,-62.48 -200.54158494234085,0 l80.21486146867275,45.25 v18.75 c0,16.97 5.973352848291397,33.25 16.617264971137047,45.25 l43.55052803635597,49.14 c14.809306542277337,16.71 35.71604151129722,21.98 54.60211705982685,16.35 l25.6127444088459,28.9 l-10.023534230589867,11.31 c-5.539088323712349,6.25 -5.539088323712349,16.38 0,22.63 l20.055931002497672,22.63 c5.539088323712349,6.25 14.516842678785324,6.25 20.055931002497672,0 l80.21486146867275,-90.51 c5.52136324107647,-6.24 5.52136324107647,-16.37 -0.017725082635879526,-22.62 zm-254.10678466796878,-15.2 c-3.279140287637711,-3.7 -6.061978261470794,-7.79 -8.729603198170661,-11.95 L17.403093240869413,404.96 c-22.66151814997196,23.88 -23.273033500909808,64.19 -1.355968821644783,88.93 s57.65083127319812,24.05 78.81457994043828,-1.53 l211.04369640409945,-255.07 c-3.5095663619041444,-2.91 -7.00140764117241,-5.87 -10.138747267723083,-9.41 l-43.55052803635597,-49.14 z" id="svg_1" class="selected"/></g></svg>