<svg xmlns="http://www.w3.org/2000/svg" aria-hidden="true" data-prefix="fas" data-icon="arrow-alt-circle-up" role="img" width="512" height="512" style=""><rect id="backgroundrect" width="100%" height="100%" x="0" y="0" fill="none" stroke="none"/><g class="currentLayer" style=""><title>Layer 1</title><path fill="#fff" d="M1.1034483909606934,256.0000091791153 C1.1034483909606934,114.80923664569855 115.19021034240723,0.4137932062149048 255.9999976158142,0.4137932062149048 s254.89654922485352,114.39544343948364 254.89654922485352,255.5862159729004 s-114.08676195144653,255.5862159729004 -254.89654922485352,255.5862159729004 S1.1034483909606934,397.19078171253204 1.1034483909606934,256.0000091791153 zm300.12013053894043,119.54839134216309 V256.0000091791153 h72.87163443565369 c10.997552728652954,0 16.547719526290894,-13.397664546966553 8.736373662948608,-21.127086400985718 L264.7363712787628,117.0765337228775 c-4.830700731277466,-4.843771028518677 -12.539265727996826,-4.843771028518677 -17.36996645927429,0 l-118.19799661636353,117.79638905525208 c-7.811345863342285,7.832480812072753 -2.261179065704346,21.127086400985718 8.736373662948608,21.127086400985718 H210.7764163017273 v119.54839134216309 c0,6.801891231536865 5.55016679763794,12.367074966430664 12.333703994750977,12.367074966430664 h65.77975463867188 c6.783537197113037,0 12.333703994750977,-5.565183734893799 12.333703994750977,-12.367074966430664 z" id="svg_1" class=""/></g></svg>
