<svg xmlns="http://www.w3.org/2000/svg" width="512" height="512" style=""><rect id="backgroundrect" width="100%" height="100%" x="0" y="0" fill="none" stroke="none"/>
    
<g class="currentLayer" style=""><title>Layer 1</title><path style="fill: #fff;line-height:normal;text-indent:0;text-align:start;text-decoration-line:none;text-decoration-style:solid;text-decoration-color:#000;text-transform:none;block-progression:tb;isolation:auto;mix-blend-mode:normal" d="M255.67346642707616,0 C114.606561047633,0 0,114.45408970729011 0,255.33332118792146 C0,396.21255266855286 114.606561047633,510.6666423758429 255.67346642707616,510.6666423758429 C396.74037180651936,510.6666423758429 511.3469328541523,396.21255266855286 511.3469328541523,255.33332118792146 C511.3469328541523,114.45408970729011 396.74037180651936,0 255.67346642707616,0 zM255.67346642707616,23.21212010799286 C384.1789019705331,23.21212010799286 488.10389045169086,126.99884789845377 488.10389045169086,255.33332118792146 C488.10389045169086,383.6677944773892 384.1789019705331,487.45452226785005 255.67346642707616,487.45452226785005 C127.16803088361927,487.45452226785005 23.24304240246147,383.6677944773892 23.24304240246147,255.33332118792146 C23.24304240246147,126.99884789845377 127.16803088361927,23.21212010799286 255.67346642707616,23.21212010799286 zM162.5878010411791,150.76543591946626 A11.622683353350858,11.607220660001829 0 0 0 154.4845210608029,170.6906850019872 L239.23991491422143,255.33332118792146 L154.4845210608029,339.97595737385575 A11.622683353350858,11.607220660001829 0 1 0 170.91807257365767,356.38764586593004 L255.67346642707616,271.7450096799958 L340.4288602804947,356.38764586593004 A11.622683353350858,11.607220660001829 0 1 0 356.8624117933494,339.97595737385575 L272.1070179399309,255.33332118792146 L356.8624117933494,170.6906850019872 A11.622683353350858,11.607220660001829 0 0 0 348.4186561063408,150.76543591946626 A11.622683353350858,11.607220660001829 0 0 0 340.4288602804947,154.27899650991284 L255.67346642707616,238.92163269584714 L170.91807257365767,154.27899650991284 A11.622683353350858,11.607220660001829 0 0 0 162.5878010411791,150.76543591946626 z" font-weight="400" font-family="sans-serif" white-space="normal" overflow="visible" id="svg_1" class="selected"/></g></svg>
