<svg xmlns="http://www.w3.org/2000/svg" viewBox="0 0 508 508"><defs><style>.cls-1{fill:#1b1919;stroke:#10d6fe;stroke-miterlimit:10;stroke-width:8px;}.cls-2{fill:#10d6fe;}</style></defs><title>資產 18</title><g id="圖層_2" data-name="圖層 2"><g id="圖層_1-2" data-name="圖層 1"><polygon class="cls-1" points="452.75 4 4 4 4 504 504 504 504 56.42 452.75 4"/><polygon class="cls-2" points="36.91 383.44 36.91 275.52 4 229.73 4 429.23 36.91 383.44"/><polygon class="cls-2" points="504 504 504 454 454 504 504 504"/><polygon class="cls-2" points="197.88 27.43 192.85 27.43 217.41 7.71 222.44 7.71 197.88 27.43"/><polygon class="cls-2" points="182.45 33.18 85.85 33.18 44.86 0.27 223.44 0.27 182.45 33.18"/><polygon class="cls-2" points="206.29 27.43 201.25 27.43 225.81 7.71 230.85 7.71 206.29 27.43"/><polygon class="cls-2" points="214.69 27.43 209.66 27.43 234.21 7.71 239.25 7.71 214.69 27.43"/></g></g></svg>