<svg xmlns="http://www.w3.org/2000/svg" viewBox="0 0 500 500"><defs><style>.cls-1{isolation:isolate;}.cls-2{fill:#9a9a9a;}.cls-3{fill:#5d6060;}.cls-4{fill:#333;}.cls-5{mix-blend-mode:multiply;}.cls-6{fill:#595757;}.cls-7{fill:#fff;}</style></defs><title>資產 50</title><g class="cls-1"><g id="圖層_2" data-name="圖層 2"><g id="圖層_1-2" data-name="圖層 1"><path d="M0,0V500H500V0ZM480,480H20V20H480Z"/><path class="cls-2" d="M5,5V495H495V5ZM480,480H20V20H480Z"/><path class="cls-3" d="M10,10V490H490V10ZM480,480H20V20H480Z"/><path class="cls-4" d="M15,15V485H485V15ZM480,480H20V20H480Z"/><g class="cls-5"><rect class="cls-6" x="242" y="12" width="6" height="6"/><rect class="cls-6" x="242" y="18" width="6" height="6"/><rect class="cls-6" x="242" y="24" width="6" height="6"/><rect class="cls-6" x="242" y="30" width="6" height="6"/><rect class="cls-6" x="242" y="36" width="6" height="6"/><rect class="cls-6" x="242" y="42" width="6" height="6"/><rect class="cls-6" x="248" y="18" width="6" height="6"/><rect class="cls-6" x="254" y="24" width="6" height="6"/><rect class="cls-6" x="260" y="30" width="6" height="6"/><rect class="cls-6" x="266" y="30" width="6" height="6"/><rect class="cls-6" x="266" y="24" width="6" height="6"/><rect class="cls-6" x="266" y="18" width="6" height="6"/><rect class="cls-6" x="266" y="12" width="6" height="6"/><rect class="cls-6" x="266" y="36" width="6" height="6"/><rect class="cls-6" x="266" y="42" width="6" height="6"/></g><rect class="cls-7" x="235" y="3" width="6" height="6"/><rect class="cls-7" x="235" y="9" width="6" height="6"/><rect class="cls-7" x="235" y="15" width="6" height="6"/><rect class="cls-7" x="235" y="21" width="6" height="6"/><rect class="cls-7" x="235" y="27" width="6" height="6"/><rect class="cls-7" x="235" y="33" width="6" height="6"/><rect class="cls-7" x="241" y="9" width="6" height="6"/><rect class="cls-7" x="247" y="15" width="6" height="6"/><rect class="cls-7" x="253" y="21" width="6" height="6"/><rect class="cls-7" x="259" y="21" width="6" height="6"/><rect class="cls-7" x="259" y="15" width="6" height="6"/><rect class="cls-7" x="259" y="9" width="6" height="6"/><rect class="cls-7" x="259" y="3" width="6" height="6"/><rect class="cls-7" x="259" y="27" width="6" height="6"/><rect class="cls-7" x="259" y="33" width="6" height="6"/><g class="cls-5"><rect class="cls-6" x="248" y="454" width="6" height="6"/><rect class="cls-6" x="254" y="454" width="6" height="6"/><rect class="cls-6" x="260" y="454" width="6" height="6"/><rect class="cls-6" x="266" y="454" width="6" height="6"/><rect class="cls-6" x="242" y="460" width="6" height="6"/><rect class="cls-6" x="248" y="466" width="6" height="6"/><rect class="cls-6" x="254" y="466" width="6" height="6"/><rect class="cls-6" x="260" y="466" width="6" height="6"/><rect class="cls-6" x="266" y="472" width="6" height="6"/><rect class="cls-6" x="266" y="478" width="6" height="6"/><rect class="cls-6" x="266" y="484" width="6" height="6"/><rect class="cls-6" x="260" y="490" width="6" height="6"/><rect class="cls-6" x="254" y="490" width="6" height="6"/><rect class="cls-6" x="248" y="490" width="6" height="6"/><rect class="cls-6" x="242" y="484" width="6" height="6"/></g><rect class="cls-7" x="241" y="445" width="6" height="6"/><rect class="cls-7" x="247" y="445" width="6" height="6"/><rect class="cls-7" x="253" y="445" width="6" height="6"/><rect class="cls-7" x="259" y="445" width="6" height="6"/><rect class="cls-7" x="235" y="451" width="6" height="6"/><rect class="cls-7" x="241" y="457" width="6" height="6"/><rect class="cls-7" x="247" y="457" width="6" height="6"/><rect class="cls-7" x="253" y="457" width="6" height="6"/><rect class="cls-7" x="259" y="463" width="6" height="6"/><rect class="cls-7" x="259" y="469" width="6" height="6"/><rect class="cls-7" x="259" y="475" width="6" height="6"/><rect class="cls-7" x="253" y="481" width="6" height="6"/><rect class="cls-7" x="247" y="481" width="6" height="6"/><rect class="cls-7" x="241" y="481" width="6" height="6"/><rect class="cls-7" x="235" y="475" width="6" height="6"/><g class="cls-5"><rect class="cls-6" x="10" y="247" width="6" height="6"/><rect class="cls-6" x="10" y="253" width="6" height="6"/><rect class="cls-6" x="10" y="259" width="6" height="6"/><rect class="cls-6" x="10" y="265" width="6" height="6"/><rect class="cls-6" x="10" y="271" width="6" height="6"/><rect class="cls-6" x="16" y="265" width="6" height="6"/><rect class="cls-6" x="22" y="259" width="6" height="6"/><rect class="cls-6" x="28" y="265" width="6" height="6"/><rect class="cls-6" x="34" y="265" width="6" height="6"/><rect class="cls-6" x="34" y="271" width="6" height="6"/><rect class="cls-6" x="34" y="259" width="6" height="6"/><rect class="cls-6" x="34" y="253" width="6" height="6"/><rect class="cls-6" x="34" y="247" width="6" height="6"/><rect class="cls-6" x="10" y="241" width="6" height="6"/><rect class="cls-6" x="34" y="241" width="6" height="6"/></g><rect class="cls-7" x="3" y="238" width="6" height="6"/><rect class="cls-7" x="3" y="244" width="6" height="6"/><rect class="cls-7" x="3" y="250" width="6" height="6"/><rect class="cls-7" x="3" y="256" width="6" height="6"/><rect class="cls-7" x="3" y="262" width="6" height="6"/><rect class="cls-7" x="9" y="256" width="6" height="6"/><rect class="cls-7" x="15" y="250" width="6" height="6"/><rect class="cls-7" x="21" y="256" width="6" height="6"/><rect class="cls-7" x="27" y="256" width="6" height="6"/><rect class="cls-7" x="27" y="262" width="6" height="6"/><rect class="cls-7" x="27" y="250" width="6" height="6"/><rect class="cls-7" x="27" y="244" width="6" height="6"/><rect class="cls-7" x="27" y="238" width="6" height="6"/><rect class="cls-7" x="3" y="232" width="6" height="6"/><rect class="cls-7" x="27" y="232" width="6" height="6"/><g class="cls-5"><rect class="cls-6" x="466" y="241" width="6" height="6"/><rect class="cls-6" x="472" y="241" width="6" height="6"/><rect class="cls-6" x="478" y="241" width="6" height="6"/><rect class="cls-6" x="484" y="241" width="6" height="6"/><rect class="cls-6" x="490" y="241" width="6" height="6"/><rect class="cls-6" x="466" y="247" width="6" height="6"/><rect class="cls-6" x="466" y="253" width="6" height="6"/><rect class="cls-6" x="472" y="253" width="6" height="6"/><rect class="cls-6" x="478" y="253" width="6" height="6"/><rect class="cls-6" x="466" y="259" width="6" height="6"/><rect class="cls-6" x="466" y="265" width="6" height="6"/><rect class="cls-6" x="466" y="271" width="6" height="6"/><rect class="cls-6" x="472" y="271" width="6" height="6"/><rect class="cls-6" x="478" y="271" width="6" height="6"/><rect class="cls-6" x="484" y="271" width="6" height="6"/><rect class="cls-6" x="490" y="271" width="6" height="6"/></g><rect class="cls-7" x="459" y="232" width="6" height="6"/><rect class="cls-7" x="465" y="232" width="6" height="6"/><rect class="cls-7" x="471" y="232" width="6" height="6"/><rect class="cls-7" x="477" y="232" width="6" height="6"/><rect class="cls-7" x="483" y="232" width="6" height="6"/><rect class="cls-7" x="459" y="238" width="6" height="6"/><rect class="cls-7" x="459" y="244" width="6" height="6"/><rect class="cls-7" x="465" y="244" width="6" height="6"/><rect class="cls-7" x="471" y="244" width="6" height="6"/><rect class="cls-7" x="459" y="250" width="6" height="6"/><rect class="cls-7" x="459" y="256" width="6" height="6"/><rect class="cls-7" x="459" y="262" width="6" height="6"/><rect class="cls-7" x="465" y="262" width="6" height="6"/><rect class="cls-7" x="471" y="262" width="6" height="6"/><rect class="cls-7" x="477" y="262" width="6" height="6"/><rect class="cls-7" x="483" y="262" width="6" height="6"/></g></g></g></svg>