<svg xmlns="http://www.w3.org/2000/svg" viewBox="0 0 600 582.91"><defs><style>.cls-1{fill:#1b1919;}.cls-2{fill:#10d6fe;}</style></defs><title>資產 22</title><g id="圖層_2" data-name="圖層 2"><g id="圖層_1-2" data-name="圖層 1"><rect class="cls-1" x="4" y="36.91" width="592" height="542"/><path class="cls-2" d="M592,40.91v534H8v-534H592m8-8H0v550H600v-550Z"/><polygon class="cls-2" points="378.79 26.31 384.78 26.31 355.55 6.59 349.56 6.59 378.79 26.31"/><polygon class="cls-2" points="368.79 26.31 374.78 26.31 345.55 6.59 339.56 6.59 368.79 26.31"/><polygon class="cls-2" points="358.79 26.31 364.78 26.31 335.55 6.59 329.56 6.59 358.79 26.31"/><polygon points="304.38 0 179.96 0 127.17 32.91 357.17 32.91 304.38 0"/><polygon class="cls-2" points="177.21 0 52.79 0 0 32.91 230 32.91 177.21 0"/></g></g></svg>