<svg xmlns="http://www.w3.org/2000/svg" viewBox="0 0 807 505.78"><defs><style>.cls-1,.cls-3,.cls-5{fill:#1b1919;}.cls-1,.cls-3,.cls-4{stroke:#10d6fe;}.cls-1{stroke-linejoin:bevel;stroke-width:7px;}.cls-2{fill:#10d6fe;}.cls-3{stroke-miterlimit:10;}.cls-3,.cls-4{stroke-width:4px;}.cls-4{fill:none;stroke-linecap:round;stroke-linejoin:round;}</style></defs><title>資產 21</title><g id="圖層_2" data-name="圖層 2"><g id="圖層_1-2" data-name="圖層 1"><rect class="cls-1" x="3.5" y="3.5" width="800" height="498.78"/><polygon class="cls-2" points="84.85 36.33 209.27 36.33 262.06 3.5 32.06 3.5 84.85 36.33"/><polygon class="cls-2" points="3.5 503.5 53.5 503.5 3.5 453.62 3.5 503.5"/><polygon class="cls-2" points="688.27 476.2 682.27 476.2 711.51 495.87 717.5 495.87 688.27 476.2"/><polygon class="cls-2" points="669.9 470.46 554.92 470.46 506.13 503.29 718.68 503.29 669.9 470.46"/><polygon class="cls-2" points="698.27 476.2 692.28 476.2 721.51 495.87 727.5 495.87 698.27 476.2"/><polygon class="cls-2" points="708.27 476.2 702.28 476.2 731.51 495.87 737.5 495.87 708.27 476.2"/><circle class="cls-3" cx="764.16" cy="34.31" r="17.8"/><line class="cls-4" x1="756.6" y1="41.86" x2="771.71" y2="26.75"/><line class="cls-4" x1="771.71" y1="41.86" x2="756.6" y2="26.75"/><rect class="cls-5" x="38.79" y="71.91" width="180.59" height="370.65"/><path class="cls-2" d="M217.38,73.91V440.57H40.78V73.91h176.6m4-4H36.78V444.57h184.6V69.91Z"/><rect class="cls-5" x="264.06" y="71.91" width="498.1" height="370.65"/><path class="cls-2" d="M760.16,73.91V440.57H266.06V73.91h494.1m4-4H262.06V444.57h502.1V69.91Z"/></g></g></svg>