<svg xmlns="http://www.w3.org/2000/svg" viewBox="0 0 807 505.78"><defs><style>.cls-1{fill:#1b1919;stroke:#10d6fe;stroke-linejoin:bevel;stroke-width:7px;}.cls-2{fill:#10d6fe;}</style></defs><title>資產 19</title><g id="圖層_2" data-name="圖層 2"><g id="圖層_1-2" data-name="圖層 1"><rect class="cls-1" x="3.5" y="3.5" width="800" height="498.78"/><polygon class="cls-2" points="84.85 36.33 209.27 36.33 262.06 3.5 32.06 3.5 84.85 36.33"/><polygon class="cls-2" points="3.5 503.5 53.5 503.5 3.5 453.62 3.5 503.5"/><polygon class="cls-2" points="688.27 476.2 682.27 476.2 711.51 495.87 717.5 495.87 688.27 476.2"/><polygon class="cls-2" points="669.9 470.46 554.92 470.46 506.13 503.29 718.68 503.29 669.9 470.46"/><polygon class="cls-2" points="698.27 476.2 692.28 476.2 721.51 495.87 727.5 495.87 698.27 476.2"/><polygon class="cls-2" points="708.27 476.2 702.28 476.2 731.51 495.87 737.5 495.87 708.27 476.2"/></g></g></svg>