<svg xmlns="http://www.w3.org/2000/svg" viewBox="0 0 917.43 100"><defs><style>.cls-1{isolation:isolate;}.cls-2{mix-blend-mode:darken;}.cls-3{fill:#1b1919;}.cls-4{fill:#10d6fe;}</style></defs><title>資產 12</title><g class="cls-1"><g id="圖層_2" data-name="圖層 2"><g id="圖層_1-2" data-name="圖層 1"><g class="cls-2"><polygon class="cls-3" points="210.41 96 164.41 50 210.41 4 707.09 4 753.09 50 707.09 96 210.41 96"/><path class="cls-4" d="M705.44,8l42,42-42,42H212.06l-42-42,42-42H705.44m3.31-8h-500l-50,50,50,50h500l50-50-50-50Z"/></g><polygon class="cls-3" points="67.71 80.64 4.77 16.6 112.26 16.6 178.03 80.64 67.71 80.64"/><path class="cls-4" d="M111.45,18.6l61.66,60H68.55l-59-60H111.45m1.62-4H0l66.88,68H183l-69.89-68Z"/><polygon class="cls-4" points="146.75 47.24 112.5 14.6 179.75 14.82 146.75 47.24"/><polygon class="cls-4" points="51.44 30.08 38.44 30.08 74.91 67.17 87.91 67.17 51.44 30.08"/><polygon class="cls-4" points="78.11 30.08 65.11 30.08 101.58 67.17 114.57 67.17 78.11 30.08"/><polygon class="cls-4" points="105.94 30.08 92.94 30.08 129.41 67.17 142.41 67.17 105.94 30.08"/><polygon class="cls-3" points="739.4 80.64 805.17 16.6 912.66 16.6 849.72 80.64 739.4 80.64"/><path class="cls-4" d="M907.89,18.6l-59,60H744.32L806,18.6H907.89m9.54-4H804.36l-69.88,68H850.56l66.87-68Z"/><polygon class="cls-4" points="770.68 47.24 804.93 14.6 737.68 14.82 770.68 47.24"/><polygon class="cls-4" points="865.99 30.08 878.99 30.08 842.52 67.17 829.53 67.17 865.99 30.08"/><polygon class="cls-4" points="839.33 30.08 852.33 30.08 815.86 67.17 802.86 67.17 839.33 30.08"/><polygon class="cls-4" points="811.49 30.08 824.49 30.08 788.02 67.17 775.03 67.17 811.49 30.08"/></g></g></g></svg>