<?xml version="1.0" standalone="no"?>
<!DOCTYPE svg PUBLIC "-//W3C//DTD SVG 20010904//EN"
 "http://www.w3.org/TR/2001/REC-SVG-20010904/DTD/svg10.dtd">
<svg version="1.0" xmlns="http://www.w3.org/2000/svg"
 width="512.000000pt" height="512.000000pt" viewBox="0 0 512.000000 512.000000"
 preserveAspectRatio="xMidYMid meet">
<metadata>
Created by potrace 1.15, written by Peter Selinger 2001-2017
</metadata>
<g transform="translate(0.000000,512.000000) scale(0.100000,-0.100000)"
fill="#ffffff" stroke="none">
<path d="M2420 4936 c-66 -19 -141 -60 -204 -111 l-56 -45 -252 0 c-243 0
-255 -1 -292 -23 -46 -26 -86 -93 -86 -143 0 -19 38 -143 85 -276 47 -133 85
-243 85 -245 0 -2 387 -3 860 -3 473 0 860 1 860 3 0 2 38 113 85 246 47 133
85 257 85 275 0 50 -40 118 -86 143 -37 22 -49 23 -292 23 l-252 0 -56 45
c-65 53 -139 93 -209 111 -62 17 -215 17 -275 0z"/>
<path d="M1588 3653 c-237 -231 -488 -540 -658 -812 -189 -304 -324 -629 -386
-931 -25 -122 -28 -156 -28 -350 -1 -240 10 -310 78 -477 111 -271 364 -496
628 -558 54 -13 249 -15 1338 -15 1089 0 1284 2 1338 15 264 62 517 287 628
558 68 167 79 237 78 477 0 194 -3 228 -28 350 -62 302 -197 627 -386 931
-170 272 -421 581 -658 812 l-111 107 -861 0 -861 0 -111 -107z m1142 -643 c0
-116 2 -140 15 -140 30 0 127 -43 186 -82 97 -65 162 -166 183 -285 l6 -33
-139 0 -138 0 -17 45 c-43 111 -203 170 -355 131 -110 -28 -161 -83 -161 -173
0 -107 59 -144 320 -203 266 -59 336 -88 417 -172 62 -64 86 -125 91 -235 11
-229 -114 -395 -347 -459 l-61 -17 0 -139 0 -138 -170 0 -170 0 0 138 0 138
-51 13 c-81 21 -190 81 -242 133 -54 55 -104 150 -113 221 l-7 48 143 -3 144
-3 7 -29 c11 -42 73 -101 133 -128 43 -19 68 -22 161 -23 98 0 116 3 166 26
100 47 143 140 104 223 -33 69 -98 98 -327 146 -183 39 -253 62 -325 109 -89
58 -133 117 -159 216 -27 100 -10 234 41 321 53 91 192 191 291 210 l34 6 0
139 0 139 170 0 170 0 0 -140z"/>
</g>
</svg>
