<?xml version="1.0" standalone="no"?>
<!DOCTYPE svg PUBLIC "-//W3C//DTD SVG 20010904//EN"
 "http://www.w3.org/TR/2001/REC-SVG-20010904/DTD/svg10.dtd">
<svg version="1.0" xmlns="http://www.w3.org/2000/svg"
 width="256.000000pt" height="256.000000pt" viewBox="0 0 256.000000 256.000000"
 preserveAspectRatio="xMidYMid meet">
<metadata>
Created by potrace 1.15, written by Peter Selinger 2001-2017
</metadata>
<g transform="translate(0.000000,256.000000) scale(0.100000,-0.100000)"
fill="#ffffff" stroke="none">
<path d="M544 1966 c-47 -21 -105 -77 -125 -121 -25 -54 -25 -157 0 -210 39
-85 125 -139 221 -139 96 0 182 54 221 139 25 53 25 156 0 210 -20 46 -79 101
-127 121 -42 18 -149 17 -190 0z"/>
<path d="M1824 1966 c-47 -21 -105 -77 -125 -121 -25 -54 -25 -157 0 -210 39
-85 125 -139 221 -139 96 0 182 54 221 139 25 53 25 156 0 210 -20 46 -79 101
-127 121 -42 18 -149 17 -190 0z"/>
<path d="M1196 1596 c-55 -20 -104 -64 -133 -116 -21 -40 -24 -55 -21 -126 4
-74 7 -86 39 -130 48 -67 113 -99 199 -99 87 0 151 32 200 100 34 48 35 52 35
140 0 84 -2 93 -30 135 -61 90 -189 133 -289 96z"/>
<path d="M528 1430 c-111 -19 -291 -99 -340 -152 l-28 -30 0 -149 0 -149 286
0 286 0 41 36 c42 35 207 124 232 124 27 0 26 21 -3 62 -35 51 -62 126 -62
172 0 32 -1 33 -72 54 -141 42 -231 50 -340 32z"/>
<path d="M1803 1430 c-85 -16 -178 -54 -181 -76 -10 -76 -28 -131 -58 -175
-33 -50 -36 -69 -9 -69 27 0 192 -90 228 -125 l36 -35 291 0 290 0 0 150 0
149 -33 33 c-106 106 -387 180 -564 148z"/>
<path d="M1199 1061 c-136 -19 -313 -94 -369 -158 l-30 -34 0 -144 0 -145 480
0 480 0 0 140 c0 77 -5 149 -11 162 -12 27 -80 76 -154 111 -104 50 -290 82
-396 68z"/>
</g>
</svg>
