<svg xmlns="http://www.w3.org/2000/svg" aria-hidden="true" data-prefix="fas" data-icon="redo-alt" role="img" width="512" height="512" style=""><rect id="backgroundrect" width="100%" height="100%" x="0" y="0" fill="none" stroke="none" class="" style=""/><g class="currentLayer" style=""><title>Layer 1</title><path fill="#fff" d="M256.81184001126394,0.41380451040743077 c68.01970829725266,0.12230923128128059 129.77723910093306,26.962504741191864 175.37278878450394,70.5950382399559 l36.65852633714676,-36.708186514377594 C484.3625984541427,18.761217011265735 510.8965355769645,29.766992209248524 510.8965355769645,51.74359711056231 V189.53059909658907 c0,13.623603870868683 -11.028863656520844,24.667407989501953 -24.634037017822266,24.667407989501953 H348.6618998686324 c-21.94687414646149,0 -32.93776032924652,-26.56988183069229 -17.41934342622757,-42.11034886407852 l42.85296022891998,-42.911011815071106 c-31.679371604919435,-29.70264264535904 -72.67143562078476,-46.15580377435684 -116.2213338136673,-46.53198174619675 c-94.83898968219756,-0.82019131565094 -174.7815718960762,76.03420170164108 -173.96146374702454,174.15395602321627 C84.69074411311257,349.87800130634787 160.0503690234672,427.9822096617746 256.3448197261344,427.9822096617746 c42.21350168466568,0 82.110377471447,-15.086175602912904 113.55162005186081,-42.711616933822626 c4.868301565647125,-4.2767118601799 12.220535197257997,-4.016676267623901 16.800413246154783,0.5683781924247742 l40.709799008369444,40.76494731998444 c5.0007095146179195,5.007483821868896 4.753342726230621,13.171368057727813 -0.49473357677459734,17.91778847837448 C381.77517771163093,485.34729475002763 321.9596301595222,510.20690296011446 256.3448197261344,510.20690296011446 C115.76042330184092,510.20690296011446 1.7941302935134291,396.0862233226824 1.7931038753043538,255.31240935259342 C1.7920774570952775,114.69893353443621 116.38859124579538,0.16199138718126593 256.81184001126394,0.41380451040743077 z" id="svg_1" class="selected"/></g></svg>